<svg xmlns="http://www.w3.org/2000/svg" width="1440" height="900" viewBox="0 0 1440 900" role="img" aria-label="Illustration sobre de contact institutionnel littoral">
  <defs>
    <linearGradient id="bgc" x1="0" y1="0" x2="1" y2="1">
      <stop offset="0" stop-color="#f6fbfb"/>
      <stop offset="0.56" stop-color="#d8eef0"/>
      <stop offset="1" stop-color="#f2e8d5"/>
    </linearGradient>
    <linearGradient id="card" x1="0" y1="0" x2="1" y2="1">
      <stop offset="0" stop-color="#ffffff"/>
      <stop offset="1" stop-color="#e6f4f3"/>
    </linearGradient>
  </defs>
  <rect width="1440" height="900" fill="url(#bgc)"/>
  <path d="M0 620 C260 540 540 560 790 625 C1015 683 1210 668 1440 595 L1440 900 L0 900 Z" fill="#1E88A8" opacity="0.82"/>
  <path d="M0 704 C310 635 590 664 850 725 C1082 780 1258 750 1440 690 L1440 900 L0 900 Z" fill="#F2E8D5"/>
  <g transform="translate(426 178)">
    <rect x="0" y="0" width="588" height="356" rx="40" fill="url(#card)" stroke="#c7dddd" stroke-width="4"/>
    <path d="M42 88 L294 245 L546 88" fill="none" stroke="#0B3D5C" stroke-width="18" stroke-linecap="round" stroke-linejoin="round"/>
    <path d="M42 270 L224 156" fill="none" stroke="#2E7D5B" stroke-width="14" stroke-linecap="round"/>
    <path d="M546 270 L364 156" fill="none" stroke="#2E7D5B" stroke-width="14" stroke-linecap="round"/>
  </g>
  <g opacity="0.62" fill="none" stroke="#2E7D5B" stroke-width="11" stroke-linecap="round">
    <path d="M170 505 C222 454 286 446 352 480"/>
    <path d="M1082 470 C1150 414 1236 408 1320 452"/>
  </g>
  <path d="M90 640 C325 570 546 585 760 645 C970 704 1194 694 1395 630" fill="none" stroke="#ffffff" stroke-width="9" opacity="0.52"/>
</svg>
